HIERARCHY
ROOT Pelvis
{
	OFFSET 0.000000 0.941512 0.000000
	CHANNELS 6 Xposition Yposition Zposition Zrotation Yrotation Xrotation 
	JOINT Pelvis_L_Hip
	{
		OFFSET 0.000000 0.000000 0.000000
		CHANNELS 3 Zrotation Yrotation Xrotation
		JOINT L_Hip
		{
			OFFSET 0.062321 -0.080322 -0.016990
			CHANNELS 3 Zrotation Yrotation Xrotation
			JOINT L_Knee
			{
				OFFSET 0.093051 -0.381305 -0.029784
				CHANNELS 3 Zrotation Yrotation Xrotation
				JOINT L_Ankle
				{
					OFFSET -0.010371 -0.431000 -0.033614
					CHANNELS 3 Zrotation Yrotation Xrotation
					End Site #name: L_Foot
					{
						OFFSET 0.069299 -0.038670 0.119418
					}
				}
			}
		}
	}
	JOINT Pelvis_R_Hip
	{
		OFFSET 0.000000 0.000000 0.000000
		CHANNELS 3 Zrotation Yrotation Xrotation
		JOINT R_Hip
		{
			OFFSET -0.055334 -0.094904 -0.002373
			CHANNELS 3 Zrotation Yrotation Xrotation
			JOINT R_Knee
			{
				OFFSET -0.064207 -0.384370 -0.019592
				CHANNELS 3 Zrotation Yrotation Xrotation
				JOINT R_Ankle
				{
					OFFSET 0.025418 -0.419734 -0.065953
					CHANNELS 3 Zrotation Yrotation Xrotation
					End Site #name: R_Foot
					{
						OFFSET -0.057233 -0.039888 0.132134
					}
				}
			}
		}
	}
	JOINT Pelvis_Spine1
	{
		OFFSET 0.000000 0.000000 0.000000
		CHANNELS 3 Zrotation Yrotation Xrotation
		JOINT Spine1
		{
			OFFSET -0.005562 0.124093 -0.043360
			CHANNELS 3 Zrotation Yrotation Xrotation
			JOINT Spine2
			{
				OFFSET 0.012244 0.139499 0.029894
				CHANNELS 3 Zrotation Yrotation Xrotation
				JOINT Spine3
				{
					OFFSET -0.002556 0.056561 0.009225
					CHANNELS 3 Zrotation Yrotation Xrotation
					JOINT Spine3_Neck
					{
						OFFSET 0.000000 0.000000 0.000000
						CHANNELS 3 Zrotation Yrotation Xrotation
						JOINT Neck
						{
							OFFSET -0.005205 0.217920 -0.024551
							CHANNELS 3 Zrotation Yrotation Xrotation
							End Site #name: Head
							{
								OFFSET 0.002365 0.091850 0.046637
							}
						}
					}
					JOINT Spine3_L_Collar
					{
						OFFSET 0.000000 0.000000 0.000000
						CHANNELS 3 Zrotation Yrotation Xrotation
						JOINT L_Collar
						{
							OFFSET 0.072225 0.116603 -0.009480
							CHANNELS 3 Zrotation Yrotation Xrotation
							JOINT L_Shoulder
							{
								OFFSET 0.115937 -0.058643 -0.021018
								CHANNELS 3 Zrotation Yrotation Xrotation
								JOINT L_Elbow
								{
									OFFSET 0.021994 -0.254722 -0.024492
									CHANNELS 3 Zrotation Yrotation Xrotation
									End Site #name: L_Wrist
									{
										OFFSET 0.048810 -0.240214 0.103329
									}
								}
							}
						}
					}
					JOINT Spine3_R_Collar
					{
						OFFSET 0.000000 0.000000 0.000000
						CHANNELS 3 Zrotation Yrotation Xrotation
						JOINT R_Collar
						{
							OFFSET -0.073372 0.120704 -0.024611
							CHANNELS 3 Zrotation Yrotation Xrotation
							JOINT R_Shoulder
							{
								OFFSET -0.108089 -0.054969 -0.020504
								CHANNELS 3 Zrotation Yrotation Xrotation
								JOINT R_Elbow
								{
									OFFSET -0.033684 -0.260739 0.009889
									CHANNELS 3 Zrotation Yrotation Xrotation
									End Site #name: R_Wrist
									{
										OFFSET -0.067980 -0.232763 0.118463
									}
								}
							}
						}
					}
				}
			}
		}
	}
}
MOTION
Frames: 8
Frame Time: 0.041667
0.000000 0.945334 0.000000 -3.208063 -1.813369 13.484066 0.000000 0.000000 0.000000 0.714616 -3.138079 -13.289306 6.307332 -0.226118 -3.528783 -4.871446 -4.337170 5.872448 0.000000 0.000000 0.000000 -0.068813 2.314199 -13.655157 -1.825853 -0.432395 -9.471337 8.579589 11.170165 9.905377 0.000000 0.000000 0.000000 5.290821 1.179310 -18.055386 -5.711094 3.659503 25.495662 2.599981 1.866343 -27.486972 0.000000 0.000000 0.000000 -0.558800 -0.180332 21.710786 0.000000 0.000000 0.000000 40.136913 -4.248051 5.138044 1.616457 -0.509866 -5.164294 -2.918450 6.074834 34.887824 0.000000 0.000000 0.000000 -39.477514 2.755212 7.444669 -1.622329 0.274887 -3.114329 5.682534 -7.834094 34.168201 
0.002659 0.945353 0.000968 -2.971469 -1.263579 13.757025 0.000000 0.000000 0.000000 0.321438 -3.348166 -14.162640 6.243218 -0.284144 -2.741051 -4.862602 -4.451603 5.757787 0.000000 0.000000 0.000000 -0.642824 2.244029 -13.395217 -1.600846 -0.504180 -10.226279 8.535052 10.814882 10.113498 0.000000 0.000000 0.000000 5.327936 1.209732 -18.304162 -5.723010 3.588626 25.093836 2.388679 1.637363 -27.337910 0.000000 0.000000 0.000000 -0.270754 -0.417003 21.928459 0.000000 0.000000 0.000000 39.808729 -4.649716 4.670406 2.029078 -0.497140 -4.902927 -3.085676 6.086242 35.039037 0.000000 0.000000 0.000000 -39.617009 2.541217 7.653106 -1.877734 0.198469 -2.695914 5.773410 -7.807150 34.122355 
0.008880 0.945820 0.002240 -2.658242 -0.699437 13.528143 0.000000 0.000000 0.000000 -0.366195 -3.400959 -14.287215 6.107289 -0.312175 -2.252451 -4.961658 -5.101400 5.514445 0.000000 0.000000 0.000000 -1.129810 2.176624 -13.124239 -1.990409 -0.452023 -9.866403 8.093111 10.144416 9.798131 0.000000 0.000000 0.000000 5.442931 1.191611 -18.214917 -5.852804 3.612543 25.102155 2.277560 1.540273 -27.274595 0.000000 0.000000 0.000000 0.083866 -0.718915 22.186519 0.000000 0.000000 0.000000 39.497828 -5.060728 4.236729 2.114754 -0.496423 -4.867083 -3.069886 6.060725 34.880314 0.000000 0.000000 0.000000 -39.980097 2.404258 7.824482 -2.115445 0.106463 -2.119979 5.817990 -7.767089 34.010928 
0.018689 0.945966 0.003923 -2.289260 0.027212 12.662408 0.000000 0.000000 0.000000 -1.268986 -3.266334 -13.598926 5.808047 -0.312591 -1.963200 -5.093035 -6.348793 4.996283 0.000000 0.000000 0.000000 -1.734728 2.040800 -12.450296 -2.626371 -0.314485 -8.736814 7.386684 9.383882 9.051471 0.000000 0.000000 0.000000 5.503421 1.122135 -17.680394 -5.925715 3.634675 25.380835 2.276548 1.476916 -27.107099 0.000000 0.000000 0.000000 0.558368 -1.129372 22.494515 0.000000 0.000000 0.000000 39.261294 -5.657899 3.661736 1.962904 -0.502467 -4.980246 -3.081289 6.007906 34.607664 0.000000 0.000000 0.000000 -40.413105 2.234641 8.014180 -2.520951 -0.001775 -1.501109 5.807415 -7.715986 33.831180 
0.031537 0.945873 0.005550 -1.995363 1.039178 11.655972 0.000000 0.000000 0.000000 -2.199816 -3.119137 -12.902117 5.396334 -0.315132 -1.504084 -5.248853 -7.920706 4.364542 0.000000 0.000000 0.000000 -2.362195 1.942836 -12.017100 -3.344428 -0.071449 -6.692629 6.384416 8.165391 8.030330 0.000000 0.000000 0.000000 5.486224 1.054499 -17.089755 -5.804898 3.561233 25.671701 2.352586 1.363885 -26.971618 0.000000 0.000000 0.000000 1.212686 -1.702113 22.974627 0.000000 0.000000 0.000000 38.964256 -6.486543 2.857723 1.865528 -0.510399 -5.102006 -3.178673 5.994065 34.565504 0.000000 0.000000 0.000000 -40.794692 1.840553 8.394140 -3.137336 -0.122007 -0.880027 5.768856 -7.656097 33.607957 
0.045996 0.945913 0.006521 -1.875741 1.975055 10.794365 0.000000 0.000000 0.000000 -2.953873 -2.962839 -12.231927 4.837700 -0.289225 -1.276511 -5.504787 -9.293898 4.026277 0.000000 0.000000 0.000000 -2.772561 1.986236 -12.510277 -4.231873 0.355144 -3.273415 5.326777 6.807884 6.927069 0.000000 0.000000 0.000000 5.446865 1.008715 -16.647521 -5.592391 3.446347 25.914922 2.480498 1.219587 -26.812771 0.000000 0.000000 0.000000 1.883412 -2.294724 23.560354 0.000000 0.000000 0.000000 38.697446 -7.273199 2.077698 1.931673 -0.517564 -5.172816 -3.248035 5.942079 34.302936 0.000000 0.000000 0.000000 -41.041010 1.339324 8.875078 -3.690799 -0.217416 -0.382351 5.818848 -7.571621 33.344851 
0.059928 0.947089 0.005281 -2.191118 2.281676 10.215592 0.000000 0.000000 0.000000 -3.334922 -2.754396 -11.426970 4.503825 -0.229897 -1.841142 -5.768144 -9.887107 4.121745 0.000000 0.000000 0.000000 -2.706106 2.304324 -14.787134 -5.257042 1.081130 2.284130 4.862187 6.135676 6.462170 0.000000 0.000000 0.000000 5.669071 0.888177 -15.847585 -5.413498 3.332905 25.677398 2.694752 1.253643 -26.682761 0.000000 0.000000 0.000000 2.213976 -2.563194 23.564451 0.000000 0.000000 0.000000 38.592075 -7.633193 1.712560 1.879502 -0.537966 -5.445135 -3.099202 5.890912 33.961104 0.000000 0.000000 0.000000 -41.036999 0.971190 9.214999 -4.108950 -0.267002 -0.186418 5.938703 -7.523051 33.246705 
0.072388 0.951121 0.001959 -3.461673 1.933882 9.775215 0.000000 0.000000 0.000000 -2.991066 -2.539296 -10.629299 4.840381 -0.194291 -2.711655 -5.826791 -9.327387 4.496876 0.000000 0.000000 0.000000 -1.872298 2.895972 -18.381023 -6.021595 2.003414 9.220190 6.071675 7.288257 8.083929 0.000000 0.000000 0.000000 6.512461 0.649614 -14.695757 -4.818378 3.066052 25.195903 2.909027 1.343972 -26.461032 0.000000 0.000000 0.000000 2.087512 -2.397927 22.996567 0.000000 0.000000 0.000000 38.770373 -7.671977 1.641346 1.238979 -0.527566 -5.454775 -2.947067 5.816122 33.463794 0.000000 0.000000 0.000000 -40.678863 0.951427 9.174908 -4.483804 -0.268822 -0.407770 6.083508 -7.466394 33.125872 
